<mxfile host="app.diagrams.net" modified="2024-06-09T20:12:42.458Z" agent="Mozilla/5.0 (X11; Linux x86_64; rv:109.0) Gecko/20100101 Firefox/115.0" etag="CE45_EOK547mGUbIijIp" version="24.5.2" type="device">
  <diagram name="Страница — 1" id="o_RvpawMHQzTKfLDxvPQ">
    <mxGraphModel dx="1731" dy="411" grid="1" gridSize="10" guides="1" tooltips="1" connect="1" arrows="1" fold="1" page="1" pageScale="1" pageWidth="827" pageHeight="1169" math="0" shadow="0">
      <root>
        <mxCell id="0" />
        <mxCell id="1" parent="0" />
        <mxCell id="5k-V5pzXhq-BMm_nL1BM-4" style="edgeStyle=orthogonalEdgeStyle;rounded=0;orthogonalLoop=1;jettySize=auto;html=1;entryX=1;entryY=0.5;entryDx=0;entryDy=0;" edge="1" parent="1" source="5k-V5pzXhq-BMm_nL1BM-2" target="5k-V5pzXhq-BMm_nL1BM-3">
          <mxGeometry relative="1" as="geometry" />
        </mxCell>
        <mxCell id="5k-V5pzXhq-BMm_nL1BM-16" style="edgeStyle=orthogonalEdgeStyle;rounded=0;orthogonalLoop=1;jettySize=auto;html=1;entryX=0;entryY=0.5;entryDx=0;entryDy=0;" edge="1" parent="1" source="5k-V5pzXhq-BMm_nL1BM-2" target="5k-V5pzXhq-BMm_nL1BM-8">
          <mxGeometry relative="1" as="geometry" />
        </mxCell>
        <mxCell id="5k-V5pzXhq-BMm_nL1BM-17" style="edgeStyle=orthogonalEdgeStyle;rounded=0;orthogonalLoop=1;jettySize=auto;html=1;entryX=0;entryY=0.5;entryDx=0;entryDy=0;" edge="1" parent="1" source="5k-V5pzXhq-BMm_nL1BM-2" target="5k-V5pzXhq-BMm_nL1BM-7">
          <mxGeometry relative="1" as="geometry" />
        </mxCell>
        <mxCell id="5k-V5pzXhq-BMm_nL1BM-18" style="edgeStyle=orthogonalEdgeStyle;rounded=0;orthogonalLoop=1;jettySize=auto;html=1;entryX=0;entryY=0.5;entryDx=0;entryDy=0;" edge="1" parent="1" source="5k-V5pzXhq-BMm_nL1BM-2" target="5k-V5pzXhq-BMm_nL1BM-6">
          <mxGeometry relative="1" as="geometry" />
        </mxCell>
        <mxCell id="5k-V5pzXhq-BMm_nL1BM-19" style="edgeStyle=orthogonalEdgeStyle;rounded=0;orthogonalLoop=1;jettySize=auto;html=1;entryX=0;entryY=0.5;entryDx=0;entryDy=0;" edge="1" parent="1" source="5k-V5pzXhq-BMm_nL1BM-2" target="5k-V5pzXhq-BMm_nL1BM-9">
          <mxGeometry relative="1" as="geometry" />
        </mxCell>
        <mxCell id="5k-V5pzXhq-BMm_nL1BM-2" value="Пульт управління" style="rounded=0;whiteSpace=wrap;html=1;" vertex="1" parent="1">
          <mxGeometry x="440" y="335" width="110" height="50" as="geometry" />
        </mxCell>
        <mxCell id="5k-V5pzXhq-BMm_nL1BM-22" style="edgeStyle=orthogonalEdgeStyle;rounded=0;orthogonalLoop=1;jettySize=auto;html=1;exitX=0.5;exitY=1;exitDx=0;exitDy=0;entryX=0.25;entryY=0;entryDx=0;entryDy=0;" edge="1" parent="1" source="5k-V5pzXhq-BMm_nL1BM-3" target="5k-V5pzXhq-BMm_nL1BM-21">
          <mxGeometry relative="1" as="geometry">
            <mxPoint x="430" y="430" as="targetPoint" />
            <Array as="points">
              <mxPoint x="360" y="440" />
              <mxPoint x="470" y="440" />
            </Array>
          </mxGeometry>
        </mxCell>
        <mxCell id="5k-V5pzXhq-BMm_nL1BM-3" value="ПЛК" style="rounded=0;whiteSpace=wrap;html=1;" vertex="1" parent="1">
          <mxGeometry x="320" y="320" width="80" height="80" as="geometry" />
        </mxCell>
        <mxCell id="5k-V5pzXhq-BMm_nL1BM-5" value="" style="endArrow=classic;html=1;rounded=0;exitX=0.996;exitY=0.341;exitDx=0;exitDy=0;exitPerimeter=0;entryX=0;entryY=0.25;entryDx=0;entryDy=0;" edge="1" parent="1" source="5k-V5pzXhq-BMm_nL1BM-3" target="5k-V5pzXhq-BMm_nL1BM-2">
          <mxGeometry width="50" height="50" relative="1" as="geometry">
            <mxPoint x="400" y="360" as="sourcePoint" />
            <mxPoint x="450" y="310" as="targetPoint" />
          </mxGeometry>
        </mxCell>
        <mxCell id="5k-V5pzXhq-BMm_nL1BM-14" style="edgeStyle=orthogonalEdgeStyle;rounded=0;orthogonalLoop=1;jettySize=auto;html=1;entryX=0;entryY=0.5;entryDx=0;entryDy=0;" edge="1" parent="1" source="5k-V5pzXhq-BMm_nL1BM-6" target="5k-V5pzXhq-BMm_nL1BM-12">
          <mxGeometry relative="1" as="geometry" />
        </mxCell>
        <mxCell id="5k-V5pzXhq-BMm_nL1BM-15" style="edgeStyle=orthogonalEdgeStyle;rounded=0;orthogonalLoop=1;jettySize=auto;html=1;" edge="1" parent="1" source="5k-V5pzXhq-BMm_nL1BM-6" target="5k-V5pzXhq-BMm_nL1BM-13">
          <mxGeometry relative="1" as="geometry" />
        </mxCell>
        <mxCell id="5k-V5pzXhq-BMm_nL1BM-6" value="Кнопки напряму" style="rounded=0;whiteSpace=wrap;html=1;" vertex="1" parent="1">
          <mxGeometry x="600" y="335" width="90" height="40" as="geometry" />
        </mxCell>
        <mxCell id="5k-V5pzXhq-BMm_nL1BM-7" value="Кнопка увімкнення" style="rounded=0;whiteSpace=wrap;html=1;" vertex="1" parent="1">
          <mxGeometry x="600" y="280" width="90" height="40" as="geometry" />
        </mxCell>
        <mxCell id="5k-V5pzXhq-BMm_nL1BM-8" value="Кнопка екстреного вимикання" style="rounded=0;whiteSpace=wrap;html=1;" vertex="1" parent="1">
          <mxGeometry x="600" y="220" width="90" height="50" as="geometry" />
        </mxCell>
        <mxCell id="5k-V5pzXhq-BMm_nL1BM-11" style="edgeStyle=orthogonalEdgeStyle;rounded=0;orthogonalLoop=1;jettySize=auto;html=1;entryX=0;entryY=0.5;entryDx=0;entryDy=0;" edge="1" parent="1" source="5k-V5pzXhq-BMm_nL1BM-9" target="5k-V5pzXhq-BMm_nL1BM-10">
          <mxGeometry relative="1" as="geometry" />
        </mxCell>
        <mxCell id="5k-V5pzXhq-BMm_nL1BM-9" value="Регулятор швидкості" style="rounded=0;whiteSpace=wrap;html=1;" vertex="1" parent="1">
          <mxGeometry x="600" y="390" width="90" height="40" as="geometry" />
        </mxCell>
        <mxCell id="5k-V5pzXhq-BMm_nL1BM-10" value="Потенціометр" style="rounded=0;whiteSpace=wrap;html=1;" vertex="1" parent="1">
          <mxGeometry x="720" y="390" width="90" height="40" as="geometry" />
        </mxCell>
        <mxCell id="5k-V5pzXhq-BMm_nL1BM-12" value="Кнопка вправо" style="rounded=0;whiteSpace=wrap;html=1;" vertex="1" parent="1">
          <mxGeometry x="735" y="280" width="60" height="40" as="geometry" />
        </mxCell>
        <mxCell id="5k-V5pzXhq-BMm_nL1BM-13" value="Кнопка вліво" style="rounded=0;whiteSpace=wrap;html=1;" vertex="1" parent="1">
          <mxGeometry x="735" y="335" width="60" height="40" as="geometry" />
        </mxCell>
        <mxCell id="5k-V5pzXhq-BMm_nL1BM-29" style="edgeStyle=orthogonalEdgeStyle;rounded=0;orthogonalLoop=1;jettySize=auto;html=1;entryX=0;entryY=0.5;entryDx=0;entryDy=0;" edge="1" parent="1" source="5k-V5pzXhq-BMm_nL1BM-20" target="5k-V5pzXhq-BMm_nL1BM-25">
          <mxGeometry relative="1" as="geometry" />
        </mxCell>
        <mxCell id="5k-V5pzXhq-BMm_nL1BM-20" value="Джерело живлення" style="rounded=0;whiteSpace=wrap;html=1;" vertex="1" parent="1">
          <mxGeometry x="-80" y="70" width="80" height="130" as="geometry" />
        </mxCell>
        <mxCell id="5k-V5pzXhq-BMm_nL1BM-62" style="edgeStyle=orthogonalEdgeStyle;rounded=0;orthogonalLoop=1;jettySize=auto;html=1;" edge="1" parent="1" source="5k-V5pzXhq-BMm_nL1BM-21" target="5k-V5pzXhq-BMm_nL1BM-60">
          <mxGeometry relative="1" as="geometry" />
        </mxCell>
        <mxCell id="5k-V5pzXhq-BMm_nL1BM-21" value="Драйвер електроприводу" style="rounded=0;whiteSpace=wrap;html=1;" vertex="1" parent="1">
          <mxGeometry x="440" y="460" width="120" height="60" as="geometry" />
        </mxCell>
        <mxCell id="5k-V5pzXhq-BMm_nL1BM-23" value="" style="endArrow=classic;html=1;rounded=0;exitX=0.75;exitY=1;exitDx=0;exitDy=0;entryX=0.75;entryY=0;entryDx=0;entryDy=0;" edge="1" parent="1" source="5k-V5pzXhq-BMm_nL1BM-3" target="5k-V5pzXhq-BMm_nL1BM-21">
          <mxGeometry width="50" height="50" relative="1" as="geometry">
            <mxPoint x="390" y="400" as="sourcePoint" />
            <mxPoint x="380" y="440" as="targetPoint" />
            <Array as="points">
              <mxPoint x="380" y="420" />
              <mxPoint x="530" y="420" />
            </Array>
          </mxGeometry>
        </mxCell>
        <mxCell id="5k-V5pzXhq-BMm_nL1BM-32" style="edgeStyle=orthogonalEdgeStyle;rounded=0;orthogonalLoop=1;jettySize=auto;html=1;entryX=0;entryY=0.5;entryDx=0;entryDy=0;" edge="1" parent="1" source="5k-V5pzXhq-BMm_nL1BM-25" target="5k-V5pzXhq-BMm_nL1BM-30">
          <mxGeometry relative="1" as="geometry" />
        </mxCell>
        <mxCell id="5k-V5pzXhq-BMm_nL1BM-25" value="Живлення 24В" style="rounded=0;whiteSpace=wrap;html=1;" vertex="1" parent="1">
          <mxGeometry x="30" y="100" width="80" height="70" as="geometry" />
        </mxCell>
        <mxCell id="5k-V5pzXhq-BMm_nL1BM-30" value="AC/DC" style="rounded=0;whiteSpace=wrap;html=1;" vertex="1" parent="1">
          <mxGeometry x="140" y="100" width="80" height="70" as="geometry" />
        </mxCell>
        <mxCell id="5k-V5pzXhq-BMm_nL1BM-42" style="edgeStyle=orthogonalEdgeStyle;rounded=0;orthogonalLoop=1;jettySize=auto;html=1;entryX=0;entryY=0.5;entryDx=0;entryDy=0;exitX=0.5;exitY=1;exitDx=0;exitDy=0;" edge="1" parent="1" source="5k-V5pzXhq-BMm_nL1BM-33" target="5k-V5pzXhq-BMm_nL1BM-21">
          <mxGeometry relative="1" as="geometry">
            <Array as="points">
              <mxPoint x="130" y="490" />
            </Array>
          </mxGeometry>
        </mxCell>
        <mxCell id="5k-V5pzXhq-BMm_nL1BM-33" value="12В" style="rounded=0;whiteSpace=wrap;html=1;" vertex="1" parent="1">
          <mxGeometry x="90" y="210" width="80" height="30" as="geometry" />
        </mxCell>
        <mxCell id="5k-V5pzXhq-BMm_nL1BM-41" style="edgeStyle=orthogonalEdgeStyle;rounded=0;orthogonalLoop=1;jettySize=auto;html=1;entryX=0;entryY=0.25;entryDx=0;entryDy=0;exitX=0.5;exitY=1;exitDx=0;exitDy=0;" edge="1" parent="1" source="5k-V5pzXhq-BMm_nL1BM-34" target="5k-V5pzXhq-BMm_nL1BM-3">
          <mxGeometry relative="1" as="geometry">
            <Array as="points">
              <mxPoint x="244" y="340" />
            </Array>
          </mxGeometry>
        </mxCell>
        <mxCell id="5k-V5pzXhq-BMm_nL1BM-43" style="edgeStyle=orthogonalEdgeStyle;rounded=0;orthogonalLoop=1;jettySize=auto;html=1;entryX=0.5;entryY=0;entryDx=0;entryDy=0;" edge="1" parent="1" source="5k-V5pzXhq-BMm_nL1BM-34" target="5k-V5pzXhq-BMm_nL1BM-2">
          <mxGeometry relative="1" as="geometry" />
        </mxCell>
        <mxCell id="5k-V5pzXhq-BMm_nL1BM-44" style="edgeStyle=orthogonalEdgeStyle;rounded=0;orthogonalLoop=1;jettySize=auto;html=1;" edge="1" parent="1" source="5k-V5pzXhq-BMm_nL1BM-34" target="5k-V5pzXhq-BMm_nL1BM-37">
          <mxGeometry relative="1" as="geometry">
            <Array as="points">
              <mxPoint x="330" y="225" />
              <mxPoint x="330" y="170" />
            </Array>
          </mxGeometry>
        </mxCell>
        <mxCell id="5k-V5pzXhq-BMm_nL1BM-34" value="5В" style="rounded=0;whiteSpace=wrap;html=1;" vertex="1" parent="1">
          <mxGeometry x="204" y="210" width="80" height="30" as="geometry" />
        </mxCell>
        <mxCell id="5k-V5pzXhq-BMm_nL1BM-35" style="edgeStyle=orthogonalEdgeStyle;rounded=0;orthogonalLoop=1;jettySize=auto;html=1;entryX=0.508;entryY=0.078;entryDx=0;entryDy=0;entryPerimeter=0;" edge="1" parent="1" source="5k-V5pzXhq-BMm_nL1BM-30" target="5k-V5pzXhq-BMm_nL1BM-33">
          <mxGeometry relative="1" as="geometry" />
        </mxCell>
        <mxCell id="5k-V5pzXhq-BMm_nL1BM-36" style="edgeStyle=orthogonalEdgeStyle;rounded=0;orthogonalLoop=1;jettySize=auto;html=1;entryX=0.45;entryY=0;entryDx=0;entryDy=0;entryPerimeter=0;" edge="1" parent="1" source="5k-V5pzXhq-BMm_nL1BM-30" target="5k-V5pzXhq-BMm_nL1BM-34">
          <mxGeometry relative="1" as="geometry" />
        </mxCell>
        <mxCell id="5k-V5pzXhq-BMm_nL1BM-55" style="edgeStyle=orthogonalEdgeStyle;rounded=0;orthogonalLoop=1;jettySize=auto;html=1;entryX=0;entryY=0.5;entryDx=0;entryDy=0;" edge="1" parent="1" source="5k-V5pzXhq-BMm_nL1BM-37" target="5k-V5pzXhq-BMm_nL1BM-54">
          <mxGeometry relative="1" as="geometry" />
        </mxCell>
        <mxCell id="5k-V5pzXhq-BMm_nL1BM-57" style="edgeStyle=orthogonalEdgeStyle;rounded=0;orthogonalLoop=1;jettySize=auto;html=1;entryX=0;entryY=0.5;entryDx=0;entryDy=0;" edge="1" parent="1" source="5k-V5pzXhq-BMm_nL1BM-37" target="5k-V5pzXhq-BMm_nL1BM-53">
          <mxGeometry relative="1" as="geometry" />
        </mxCell>
        <mxCell id="5k-V5pzXhq-BMm_nL1BM-37" value="Блок індикації" style="rounded=0;whiteSpace=wrap;html=1;" vertex="1" parent="1">
          <mxGeometry x="440" y="140" width="110" height="60" as="geometry" />
        </mxCell>
        <mxCell id="5k-V5pzXhq-BMm_nL1BM-39" value="" style="endArrow=classic;html=1;rounded=0;exitX=0.75;exitY=0;exitDx=0;exitDy=0;entryX=0;entryY=0.75;entryDx=0;entryDy=0;" edge="1" parent="1" source="5k-V5pzXhq-BMm_nL1BM-3" target="5k-V5pzXhq-BMm_nL1BM-37">
          <mxGeometry width="50" height="50" relative="1" as="geometry">
            <mxPoint x="370" y="250" as="sourcePoint" />
            <mxPoint x="420" y="200" as="targetPoint" />
            <Array as="points">
              <mxPoint x="380" y="185" />
            </Array>
          </mxGeometry>
        </mxCell>
        <mxCell id="5k-V5pzXhq-BMm_nL1BM-40" value="" style="endArrow=classic;html=1;rounded=0;exitX=0;exitY=0.25;exitDx=0;exitDy=0;entryX=0.5;entryY=0;entryDx=0;entryDy=0;" edge="1" parent="1" source="5k-V5pzXhq-BMm_nL1BM-37" target="5k-V5pzXhq-BMm_nL1BM-3">
          <mxGeometry width="50" height="50" relative="1" as="geometry">
            <mxPoint x="370" y="250" as="sourcePoint" />
            <mxPoint x="420" y="200" as="targetPoint" />
            <Array as="points">
              <mxPoint x="360" y="155" />
            </Array>
          </mxGeometry>
        </mxCell>
        <mxCell id="5k-V5pzXhq-BMm_nL1BM-45" value="&lt;div&gt;7-сегментний дисплей&lt;/div&gt;" style="rounded=0;whiteSpace=wrap;html=1;" vertex="1" parent="1">
          <mxGeometry x="690" y="30" width="110" height="50" as="geometry" />
        </mxCell>
        <mxCell id="5k-V5pzXhq-BMm_nL1BM-47" style="edgeStyle=orthogonalEdgeStyle;rounded=0;orthogonalLoop=1;jettySize=auto;html=1;entryX=0;entryY=0.5;entryDx=0;entryDy=0;" edge="1" parent="1" source="5k-V5pzXhq-BMm_nL1BM-46" target="5k-V5pzXhq-BMm_nL1BM-45">
          <mxGeometry relative="1" as="geometry" />
        </mxCell>
        <mxCell id="5k-V5pzXhq-BMm_nL1BM-46" value="&lt;div&gt;Паралельний формат SPI &lt;/div&gt;" style="rounded=0;whiteSpace=wrap;html=1;" vertex="1" parent="1">
          <mxGeometry x="590" y="30" width="80" height="50" as="geometry" />
        </mxCell>
        <mxCell id="5k-V5pzXhq-BMm_nL1BM-49" value="Світлодіодна індикація" style="rounded=0;whiteSpace=wrap;html=1;" vertex="1" parent="1">
          <mxGeometry x="720" y="100" width="80" height="50" as="geometry" />
        </mxCell>
        <mxCell id="5k-V5pzXhq-BMm_nL1BM-53" value="Імпульсне управління" style="rounded=0;whiteSpace=wrap;html=1;" vertex="1" parent="1">
          <mxGeometry x="600" y="100" width="80" height="40" as="geometry" />
        </mxCell>
        <mxCell id="5k-V5pzXhq-BMm_nL1BM-56" style="edgeStyle=orthogonalEdgeStyle;rounded=0;orthogonalLoop=1;jettySize=auto;html=1;entryX=0;entryY=0.5;entryDx=0;entryDy=0;" edge="1" parent="1" source="5k-V5pzXhq-BMm_nL1BM-54" target="5k-V5pzXhq-BMm_nL1BM-46">
          <mxGeometry relative="1" as="geometry" />
        </mxCell>
        <mxCell id="5k-V5pzXhq-BMm_nL1BM-54" value="Цифрове управління" style="rounded=0;whiteSpace=wrap;html=1;" vertex="1" parent="1">
          <mxGeometry x="480" y="35" width="80" height="40" as="geometry" />
        </mxCell>
        <mxCell id="5k-V5pzXhq-BMm_nL1BM-58" style="edgeStyle=orthogonalEdgeStyle;rounded=0;orthogonalLoop=1;jettySize=auto;html=1;entryX=0.02;entryY=0.418;entryDx=0;entryDy=0;entryPerimeter=0;" edge="1" parent="1" source="5k-V5pzXhq-BMm_nL1BM-53" target="5k-V5pzXhq-BMm_nL1BM-49">
          <mxGeometry relative="1" as="geometry" />
        </mxCell>
        <mxCell id="5k-V5pzXhq-BMm_nL1BM-60" value="Блок електроприводу" style="rounded=0;whiteSpace=wrap;html=1;" vertex="1" parent="1">
          <mxGeometry x="600" y="452.5" width="120" height="75" as="geometry" />
        </mxCell>
        <mxCell id="5k-V5pzXhq-BMm_nL1BM-63" value="Датчик температури" style="rounded=0;whiteSpace=wrap;html=1;" vertex="1" parent="1">
          <mxGeometry x="440" y="540" width="90" height="60" as="geometry" />
        </mxCell>
        <mxCell id="5k-V5pzXhq-BMm_nL1BM-64" value="Датчик швидкості" style="rounded=0;whiteSpace=wrap;html=1;" vertex="1" parent="1">
          <mxGeometry x="440" y="620" width="90" height="60" as="geometry" />
        </mxCell>
        <mxCell id="5k-V5pzXhq-BMm_nL1BM-65" value="" style="endArrow=classic;html=1;rounded=0;exitX=0.384;exitY=0.997;exitDx=0;exitDy=0;exitPerimeter=0;entryX=0;entryY=0.25;entryDx=0;entryDy=0;" edge="1" parent="1" source="5k-V5pzXhq-BMm_nL1BM-3" target="5k-V5pzXhq-BMm_nL1BM-63">
          <mxGeometry width="50" height="50" relative="1" as="geometry">
            <mxPoint x="290" y="490" as="sourcePoint" />
            <mxPoint x="340" y="440" as="targetPoint" />
            <Array as="points">
              <mxPoint x="350" y="555" />
            </Array>
          </mxGeometry>
        </mxCell>
        <mxCell id="5k-V5pzXhq-BMm_nL1BM-66" value="" style="endArrow=classic;html=1;rounded=0;exitX=0;exitY=0.75;exitDx=0;exitDy=0;entryX=0.25;entryY=1;entryDx=0;entryDy=0;" edge="1" parent="1" source="5k-V5pzXhq-BMm_nL1BM-63" target="5k-V5pzXhq-BMm_nL1BM-3">
          <mxGeometry width="50" height="50" relative="1" as="geometry">
            <mxPoint x="310" y="570" as="sourcePoint" />
            <mxPoint x="360" y="520" as="targetPoint" />
            <Array as="points">
              <mxPoint x="340" y="585" />
            </Array>
          </mxGeometry>
        </mxCell>
        <mxCell id="5k-V5pzXhq-BMm_nL1BM-67" value="" style="endArrow=classic;html=1;rounded=0;exitX=-0.007;exitY=0.839;exitDx=0;exitDy=0;exitPerimeter=0;entryX=0;entryY=0.25;entryDx=0;entryDy=0;" edge="1" parent="1" source="5k-V5pzXhq-BMm_nL1BM-3" target="5k-V5pzXhq-BMm_nL1BM-64">
          <mxGeometry width="50" height="50" relative="1" as="geometry">
            <mxPoint x="310" y="530" as="sourcePoint" />
            <mxPoint x="360" y="480" as="targetPoint" />
            <Array as="points">
              <mxPoint x="280" y="387" />
              <mxPoint x="280" y="635" />
            </Array>
          </mxGeometry>
        </mxCell>
        <mxCell id="5k-V5pzXhq-BMm_nL1BM-68" value="" style="endArrow=classic;html=1;rounded=0;exitX=0;exitY=0.75;exitDx=0;exitDy=0;entryX=0;entryY=0.5;entryDx=0;entryDy=0;" edge="1" parent="1" source="5k-V5pzXhq-BMm_nL1BM-64" target="5k-V5pzXhq-BMm_nL1BM-3">
          <mxGeometry width="50" height="50" relative="1" as="geometry">
            <mxPoint x="420" y="540" as="sourcePoint" />
            <mxPoint x="470" y="490" as="targetPoint" />
            <Array as="points">
              <mxPoint x="260" y="665" />
              <mxPoint x="260" y="360" />
            </Array>
          </mxGeometry>
        </mxCell>
      </root>
    </mxGraphModel>
  </diagram>
</mxfile>
